
<svg xmlns="http://www.w3.org/2000/svg" xmlns:xlink="http://www.w3.org/1999/xlink" version="1.1" x="0px" y="0px" viewBox="0 0 174.217 174.217" stroke="#fff" fill="transparent" stroke-width="1.5" xml:space="preserve">
    <g>
        <ellipse transform="matrix(0.2268 -0.9739 0.9739 0.2268 16.7468 66.0941)" cx="50.001" cy="22.5" rx="22.494" ry="22.496"/>
        <path d="M174.217,52.299h-4.2v-4.9l-3-0.983v5.883h-55.2h-2.4h-33.6V49c0,0-4.4,0.938-5.6-2.4c-2.8,3.4-2.05,8.275-2.05,8.275   l-15.071,1.663c-1.746-3.74-4.58-6.586-8.347-7.525c-7.199-1.794-17.129,1.222-23.082,10.994L5.417,61.799l4.8,23.2l3.633-0.977   c-2.367,11.726-2.481,22.61-0.729,37.661c1.805,9.288,6.243,13.763,11.434,15.869c0.494,4.058,0.829,8.6,0.821,13.431   c0.004,9.01-1.157,18.986-4.447,28.81c-3.304,9.837-8.659,19.531-17.374,28.475c-4.822,4.941-4.726,12.854,0.213,17.677   c4.941,4.823,12.854,4.726,17.677-0.213c11.537-11.804,18.87-25.054,23.192-38.007c0.715-2.138,1.35-4.267,1.912-6.382   c0.134,1.947,0.204,3.922,0.202,5.92c-0.004,9.008-1.418,18.523-5.009,28.497c-2.342,6.496,1.024,13.658,7.52,16   c1.4,0.504,2.831,0.743,4.238,0.743c5.121,0.001,9.925-3.169,11.762-8.263l-0.002-0.002c4.623-12.811,6.498-25.321,6.492-36.975   c-0.02-23.542-7.484-43.458-14.785-57.522c-3.072-5.899-6.126-10.778-8.679-14.513c-0.075-10.831,1.875-22.14,3.823-31.978   c5.9,2.042,13.217,3.199,22.333,3.202c1.739,0,3.546-0.042,5.421-0.128c4.028-0.184,7.212-3.317,7.588-7.216   c-6.074,1.364-12.057,2.076-17.892,2.076h-0.032c-6.344-0.004-11.895-0.818-16.605-1.988c-3.651-0.907-6.794-2.026-9.406-3.151   c-3.168-1.364-5.554-2.73-7.111-3.728c-1.303-0.835-2.031-1.412-2.148-1.507c-2.079-1.652-3.396-4.031-3.695-6.687   c-0.204-1.8,0.087-3.576,0.807-5.188c0.081-0.181,0.158-0.363,0.249-0.539c0.297-0.569,0.65-1.115,1.058-1.629   C34.588,54.372,37.44,53,40.506,53c2.25,0,4.379,0.732,6.154,2.123c0.229,0.16,0.515,0.354,0.908,0.595   c0.017,0.011,0.028,0.018,0.045,0.029c0.502,0.307,1.231,0.715,2.131,1.162c0.612,0.304,1.291,0.623,2.081,0.952   c0.693,0.288,1.399,0.556,2.114,0.807c4.755,1.668,9.989,2.516,15.592,2.517c8.166-0.004,16.882-1.843,25.91-5.465   c1.193-0.479,2.447-0.721,3.724-0.721c4.106,0,7.75,2.462,9.282,6.273c0.799,1.99,0.903,4.086,0.441,6.028h2.93V62.4h32.8v-3.1   h29.6V52.299z"/>
        <path d="M106.824,67.299c0.505-1.677,0.47-3.53-0.233-5.281c-1.648-4.101-6.307-6.088-10.405-4.442   c-10.54,4.228-19.406,5.603-26.654,5.606c-6.127-0.001-11.121-0.992-14.96-2.2c-1.305-0.411-2.479-0.846-3.516-1.276   c-1.413-0.588-2.552-1.162-3.442-1.653c-0.396-0.218-0.756-0.425-1.045-0.602c-0.102-0.063-0.171-0.108-0.26-0.165   c-0.32-0.203-0.58-0.374-0.722-0.474c-0.07-0.051-0.118-0.085-0.145-0.104c-0.007-0.005-0.011-0.008-0.014-0.01   c-3.454-2.702-8.447-2.12-11.185,1.317c-0.169,0.213-0.326,0.432-0.471,0.656c-2.201,3.41-1.5,8.002,1.742,10.586v-0.002   c0.481,0.388,4.322,3.344,11.191,5.931c1.96,0.738,4.167,1.444,6.614,2.054c4.582,1.142,9.997,1.941,16.212,1.944   c0.009,0,0.021,0,0.03,0c5.4,0,11.372-0.618,17.837-2.099c4.668-1.07,9.591-2.587,14.751-4.662   C104.496,71.48,106.147,69.547,106.824,67.299z"/>
    </g>
</svg>