
<svg xmlns="http://www.w3.org/2000/svg" data-name="Layer 1" viewBox="0 0 128 128" x="0px" y="0px" stroke="#fff" stroke-width="1.5" fill="transparent">
    <path d="M31.579,56C15.08386,56,5.99987,66.32422,5.99987,85.07031V126a2,2,0,0,0,4,0V85.07031C9.99987,68.43457,17.26013,60,31.579,60h4.05029a39.1919,39.1919,0,0,1-2.78284-4Z"/>
    <path d="M55.65124,17.87207a1.999,1.999,0,0,0-2.7793-.52344,32.354,32.354,0,0,1-7.47363,3.74414A1.99986,1.99986,0,1,0,46.6,24.90771a35.83748,35.83748,0,0,0,8.52783-4.25635A1.99956,1.99956,0,0,0,55.65124,17.87207Z"/>
    <path d="M48.97741,32.83057c3.36621-1.88428,5.11084-.02,5.43311.38379a2,2,0,0,0,3.19385-2.4082c-1.34326-1.80518-5.28467-4.43555-10.582-1.46484a1.99983,1.99983,0,1,0,1.95508,3.48926Z"/>
    <path d="M83.90759,23.6001A1.99949,1.99949,0,0,0,82.6,21.09229a32.03884,32.03884,0,0,1-7.47217-3.74365,1.99981,1.99981,0,1,0-2.25586,3.30273,35.83748,35.83748,0,0,0,8.52783,4.25635,1.99746,1.99746,0,0,0,2.50781-1.30762Z"/>
    <path d="M80.97741,29.34131c-5.30078-2.9707-9.23975-.34033-10.582,1.46484a1.9943,1.9943,0,0,0,1.60449,3.17529,2.02623,2.02623,0,0,0,1.58643-.76367c.31445-.39648,2.06055-2.27881,5.436-.38721a1.99983,1.99983,0,0,0,1.95508-3.48926Z"/>
    <path d="M34.99987,35c0-17.09326,13.00928-31,29-31s29,13.90674,29,31a32.87825,32.87825,0,0,1-1.16144,8.66547A21.771,21.771,0,0,1,94.73376,46.54l.43451-.06281A36.74344,36.74344,0,0,0,96.99987,35c0-19.29883-14.80371-35-33-35s-33,15.70117-33,35A36.29644,36.29644,0,0,0,36.688,54.6217l.01349-.01477a8.91382,8.91382,0,0,1,3.38129-2.1012A32.32046,32.32046,0,0,1,34.99987,35Z"/>
    <path d="M121.02136,72.82031a1.99939,1.99939,0,0,0-1.916-2.08008l-25.937-1.07129A5.89874,5.89874,0,0,0,89.243,71.10938,17.445,17.445,0,0,1,81.45056,75.46c-3.19189.7002-25.40283.13281-25.40283.13281a1.25672,1.25672,0,0,1-1.20312-1.27051,1.18563,1.18563,0,0,1,.34326-.85742,1.01759,1.01759,0,0,1,.76367-.31055l13.28711.1709a1.97866,1.97866,0,0,0,2.02588-1.97461A2.00016,2.00016,0,0,0,69.2904,69.3252l-21.65625-.14453A1.25714,1.25714,0,0,1,46.432,67.9092a1.60477,1.60477,0,0,1,.93018-1.447s21.835.28,21.86084.28a2.00008,2.00008,0,0,0,.0249-4l-26.04736-.3335a1.27162,1.27162,0,0,1-1.20068-1.27241,1.1383,1.1383,0,0,1,1.10742-1.16411l26.04688.33105a1.97156,1.97156,0,0,0,2.02539-1.97461A2.00057,2.00057,0,0,0,69.205,56.30322l-19.46271-.24738c-1.05475,0-1.14629-.80259-1.15106-1.60758a1.1454,1.1454,0,0,1,1.106-1.16409l20.05029.25488c2.07617-.02148,2.70166-1.17773,2.876-1.69775.17578-.522.40088-1.87158-1.292-3.1167l-7.86426-5.78223a1.3126,1.3126,0,0,1-.50488-.96143,2.1262,2.1262,0,0,1,.47168-1.59424c.32275-.34912,1.07812-1.165,4.86816,1.76855A20.18281,20.18281,0,0,0,77.82946,46.229c3.94678.73828,8.42529,1.9165,11.62061,6.57227a4.66031,4.66031,0,0,0,4.05127,1.99658L120.286,50.93018a2.00007,2.00007,0,0,0-.57227-3.959L93.16931,50.80762a.92734.92734,0,0,1-.42139-.27C88.349,44.12793,81.98425,42.937,78.56677,42.29736a16.16654,16.16654,0,0,1-7.81592-3.30518c-1.8291-1.415-6.6875-5.17383-10.25391-1.3208a6.08435,6.08435,0,0,0-1.51025,4.75049,5.20665,5.20665,0,0,0,2.15918,3.77783l4.46875,3.28613-15.86719-.20166a5.00645,5.00645,0,0,0-3.6377,1.47559,5.14544,5.14544,0,0,0-1.51855,3.71484,5.76213,5.76213,0,0,0,.21692,1.51849l-1.649-.02094a5.11162,5.11162,0,0,0-5.15918,5.19043,5.26787,5.26787,0,0,0,4.65784,5.189,5.544,5.544,0,0,0-.22571,1.5849,5.27824,5.27824,0,0,0,5.1499,5.24414l3.38263.04321a5.25373,5.25373,0,0,0,5.03094,6.3689S74.11511,80,75.54479,80a31.367,31.367,0,0,0,6.7627-.63281,21.34389,21.34389,0,0,0,9.61328-5.28711,2.59764,2.59764,0,0,1,1.07178-.415l25.94775,1.07129A2.001,2.001,0,0,0,121.02136,72.82031Z"/>
    <path d="M31.99987,114a2.0001,2.0001,0,0,0-2,2v10a2,2,0,0,0,4,0V116A2.0001,2.0001,0,0,0,31.99987,114Z"/>
    <path d="M95.99987,114a2.0001,2.0001,0,0,0-2,2v10a2,2,0,0,0,4,0V116A2.0001,2.0001,0,0,0,95.99987,114Z"/>
    <circle cx="63.99987" cy="93" r="2"/>
    <circle cx="63.99987" cy="101" r="2"/>
    <circle cx="63.99987" cy="109" r="2"/>
    <path d="M121.53155,78.14252a6.09075,6.09075,0,0,1-2.77838.58136l-1.18036-.04877a46.33864,46.33864,0,0,1,.42706,6.3952V126a2,2,0,0,0,4,0V85.07031A49.11751,49.11751,0,0,0,121.53155,78.14252Z"/>
</svg>