
<svg xmlns="http://www.w3.org/2000/svg" xmlns:xlink="http://www.w3.org/1999/xlink" version="1.1" x="0px" y="0px" viewBox="0 0 100 100" enable-background="new 0 0 100 100" xml:space="preserve" stroke="#fff" fill="transparent"><path d="M68.748,73.556l-13.18-24.878c-0.831-1.569-1.811-2.357-2.681-2.744l-3.45,13.579l4.863-1.543l-4.007,17.827H54.1v11.697  c0,1.55,1.258,2.807,2.807,2.807c1.55,0,2.807-1.256,2.807-2.807V75.796h7.686c0.535,0,1.031-0.281,1.309-0.739  C68.982,74.598,68.998,74.028,68.748,73.556z"/><path d="M45.767,63.578L48.02,49.75c-0.645-0.222-1.216-0.246-1.625-0.21c-0.983,0.086-2.81,0.65-3.996,3.458L31.249,73.625  c-0.247,0.474-0.229,1.043,0.05,1.501c0.279,0.457,0.776,0.734,1.313,0.731l7.377-0.044l0.069,11.696  c0.01,1.549,1.273,2.8,2.823,2.79c1.551-0.009,2.799-1.274,2.791-2.823L45.6,75.78l3.472-0.014l1.406-14.15L45.767,63.578z"/><path d="M45.691,36.424l1.063-13.05c-0.6-0.028-1.207-0.009-1.822,0.063c-6.047,0.717-10.383,6.22-9.666,12.267  c0.719,6.046,6.221,10.381,12.268,9.664c0.5-0.06,0.986-0.154,1.461-0.276L50.465,33.9L45.691,36.424z"/><path d="M62.449,29.422c0-5.469-3.998-10.021-9.225-10.89l-2.591,12.833l5.037-1.944l-2.78,10.939  C58.28,39.634,62.449,35.007,62.449,29.422z"/>
</svg>