<svg xmlns="http://www.w3.org/2000/svg" xmlns:xlink="http://www.w3.org/1999/xlink" version="1.1" x="0px" y="0px" viewBox="0 0 100 100" enable-background="new 0 0 100 100" xml:space="preserve">
    <path fill="transparent" stroke="#ffffff" d="M68.695,41.379c0-1.251-0.277-2.434-0.7-3.536c0.22-1.142,0.337-2.313,0.337-3.484  c0-10.136-8.247-18.383-18.384-18.383s-18.383,8.247-18.383,18.383c0,1.174,0.121,2.344,0.341,3.487  c-0.428,1.104-0.704,2.292-0.704,3.534c0,5.938,4.654,7.172,7.584,7.511l-0.01,2.74c0,3.799,7.398,5.443,11.172,5.443  c3.774,0,11.173-1.644,11.173-5.445l-0.004-2.74C64.042,48.548,68.695,47.312,68.695,41.379z M59.514,46.016l-1.401,0.094  l0.017,5.457c-0.309,0.847-4.203,2.506-8.182,2.506s-7.872-1.659-8.172-2.438l0.02-5.525l-1.405-0.093  c-5.176-0.344-6.188-1.961-6.188-4.638c0-2.455,1.622-4.8,2.982-6.336c0.549-0.62,0.492-1.568-0.128-2.117  c-0.621-0.55-1.568-0.491-2.118,0.128c-0.107,0.121-0.217,0.258-0.327,0.387c0.479-8.054,7.164-14.465,15.336-14.465  c8.17,0,14.855,6.407,15.337,14.458c-0.226-0.263-0.452-0.514-0.672-0.747c-0.57-0.601-1.519-0.627-2.12-0.057  c-0.602,0.57-0.628,1.519-0.058,2.121c1.487,1.57,3.26,3.994,3.26,6.628C65.695,44.052,64.683,45.668,59.514,46.016z"/><circle fill="transparent" stroke="#ffffff" cx="43.448" cy="39.018" r="5.304"/>
    <circle fill="transparent" stroke="#ffffff" cx="56.552" cy="39.018" r="5.304"/>
    <path fill="transparent" stroke="#ffffff" d="M49.948,44.323c-1.345,0-2.436,1.414-2.436,2.759s4.872,1.345,4.872,0S51.293,44.323,49.948,44.323z"/>
    <path fill="transparent" stroke="#ffffff" d="M60.84,66.717c0-1.938-1.978-3.457-4.503-3.457c-1.261,0-2.385,0.379-3.195,0.999  c-0.81-0.62-1.934-0.999-3.195-0.999c-1.261,0-2.385,0.379-3.195,1c-0.81-0.621-1.934-1-3.195-1c-2.525,0-4.503,1.518-4.503,3.457  c0,0.099,0.027,0.191,0.037,0.288v20.004c0,1.349,1.614,2.443,3.618,2.443s3.62-1.094,3.62-2.443c0,1.349,1.617,2.443,3.62,2.443  c2.004,0,3.617-1.094,3.617-2.443c0,1.349,1.613,2.443,3.617,2.443c2.004,0,3.628-1.094,3.628-2.443h-0.003V66.968  C60.816,66.884,60.84,66.804,60.84,66.717z M48.054,66.677c0.059-0.303,0.778-0.818,1.893-0.818c1.112,0,1.831,0.513,1.893,0.816  c0,0.015-0.005,0.028-0.005,0.043s0.005,0.028,0.005,0.043c-0.062,0.303-0.782,0.815-1.893,0.815c-1.114,0-1.834-0.515-1.893-0.818  c0-0.014,0.005-0.027,0.005-0.041S48.054,66.691,48.054,66.677z M41.652,66.717c0-0.295,0.742-0.859,1.905-0.859  c1.114,0,1.834,0.516,1.893,0.818c0,0.014-0.005,0.027-0.005,0.041s0.005,0.027,0.005,0.041c-0.059,0.303-0.778,0.818-1.893,0.818  C42.394,67.576,41.652,67.012,41.652,66.717z M49.947,84.758c-3.814,0-6.905-3.092-6.905-6.905s3.092-6.905,6.905-6.905  s6.905,3.092,6.905,6.905S53.761,84.758,49.947,84.758z M56.337,67.576c-1.112,0-1.831-0.512-1.893-0.815  c0-0.015,0.005-0.028,0.005-0.043s-0.005-0.028-0.005-0.043c0.062-0.303,0.782-0.816,1.893-0.816c1.163,0,1.905,0.564,1.905,0.859  S57.5,67.576,56.337,67.576z"/>
    <path fill="transparent" stroke="#ffffff" d="M53.538,73.443c-0.641-0.496-1.565-0.378-2.063,0.264l-2.688,3.479c-0.496,0.643-0.378,1.566,0.265,2.063  c0.268,0.207,0.584,0.307,0.898,0.307c0.439,0,0.875-0.196,1.165-0.571l2.688-3.479C54.299,74.863,54.181,73.939,53.538,73.443z"/>
    <path fill="transparent" stroke="#ffffff" d="M78.719,48.41l0.907-4.054c0,0,0.721-0.449,0.863-0.868c0.089-0.262,2.93-10.808,2.93-10.808  s0.288-0.988,0.179-1.14c-0.109-0.152-0.216-0.386-0.216-0.386L88.42,16.87c0,0,0.569-0.924,0.244-1.24  c-0.325-0.317-0.243-0.36-0.243-0.36c0.068-0.162,0.174-0.468,0.203-0.644c0.04-0.243-0.873-0.82-1.152-0.664  c-0.102,0.057-0.414,0.731-0.449,0.718c0,0-3.048-1.118-3.209-0.985s-0.51,1-0.346,1.229c0.203,0.281,2.787,2.464,2.787,2.464  l-1.728,4.595c-0.251,0.215-0.458,0.492-0.739,0.669c-0.286,0.18-0.637,0.239-0.958,0.332c-0.514,0.148-1.101,0.114-1.293,0.67  c-0.166,0.481-1.996,5.806-2.167,6.023c-0.216,0.276-0.591,0.327-0.742,0.668c-0.087,0.197-5.35,12.917-5.393,13.03  c-0.107,0.285,0.314,1.096,0.366,0.944c-0.167,0.485-4.26,12.408-4.738,13.801c-0.286,0.834-0.573,1.668-0.859,2.502  c-0.175,0.51,0.395,1.384,0.592,1.878l0.859,1.405c0,0-1.17,6.581-1.17,6.581c-0.395,0.541-1.105,1.275-1.28,1.943  c-0.052,0.198-2.01,10.964-2.068,11.373c-0.051,0.356,0.201,0.708,0.602,0.776c2.142,0.389,7.268,1.391,7.715,1.406  c0.594,0.021,0.762-0.436,0.924-0.948c0.064-0.203-1.598-17.058-1.427-18.531c0.112-0.958,0.267-1.258,0.323-1.377  c0.317-0.671,1.983-0.476,1.983-0.476l4.077,3.475c0,0,1.423,0.202,1.98-0.615c0.258-0.379,0.429-0.818,0.576-1.251  c0.092-0.271,0.421-0.865,0.236-1.117c-0.198-0.27-4.794-4.013-4.794-4.013l-0.353-0.736c0.187-0.051,0.404-0.126,0.621-0.239  c0.276-0.144,0.442-0.424,0.562-0.741c0.075-0.198,0.822-2.712,0.779-3.057c-0.028-0.224-0.197-0.489-0.313-0.649l0.285-0.922  c0,0,0.012-0.328-0.261-0.487c-0.273-0.158-0.866-0.353-0.866-0.353l0.231-0.406c5.255,0.611,10.741-0.632,15.392-3.914  c0.07-0.049,0.14-0.099,0.209-0.149l-3.046-4.215C86.861,47.801,82.713,48.802,78.719,48.41z"/>
    <path fill="transparent" stroke="#ffffff" d="M31.437,70.488c0,0-1.17-6.581-1.17-6.581l0.859-1.405c0.197-0.494,0.767-1.369,0.592-1.878  c-0.286-0.834-0.573-1.668-0.859-2.502c-0.478-1.393-4.571-13.315-4.738-13.801c0.052,0.151,0.474-0.659,0.366-0.944  c-0.043-0.113-5.306-12.834-5.393-13.03c-0.15-0.341-0.526-0.392-0.742-0.668c-0.171-0.218-2-5.543-2.167-6.023  c-0.192-0.556-0.779-0.521-1.293-0.67c-0.321-0.093-0.672-0.152-0.958-0.332c-0.281-0.177-0.488-0.455-0.739-0.669l-1.728-4.595  c0,0,2.584-2.183,2.787-2.464c0.164-0.228-0.185-1.095-0.346-1.229c-0.161-0.134-3.209,0.985-3.209,0.985  c-0.034,0.013-0.347-0.662-0.449-0.718c-0.279-0.156-1.192,0.421-1.152,0.664c0.029,0.176,0.135,0.482,0.203,0.644  c0,0,0.082,0.044-0.243,0.36c-0.325,0.316,0.244,1.24,0.244,1.24l5.038,14.284c0,0-0.106,0.234-0.216,0.386s0.179,1.14,0.179,1.14  s2.841,10.546,2.93,10.808c0.142,0.419,0.863,0.868,0.863,0.868l0.907,4.054c-3.995,0.392-8.143-0.609-11.652-3.145L6.306,49.48  c0.069,0.05,0.139,0.1,0.209,0.149c4.651,3.282,10.137,4.524,15.392,3.914l0.231,0.406c0,0-0.593,0.195-0.866,0.353  c-0.273,0.158-0.261,0.487-0.261,0.487l0.285,0.922c-0.116,0.16-0.285,0.425-0.313,0.649c-0.043,0.345,0.705,2.859,0.779,3.057  c0.119,0.317,0.285,0.598,0.562,0.741c0.217,0.112,0.434,0.188,0.621,0.239l-0.353,0.736c0,0-4.596,3.743-4.794,4.013  c-0.185,0.253,0.144,0.846,0.236,1.117c0.146,0.433,0.317,0.872,0.576,1.251c0.557,0.817,1.98,0.615,1.98,0.615l4.077-3.475  c0,0,1.666-0.195,1.983,0.476c0.056,0.119,0.211,0.419,0.323,1.377c0.172,1.473-1.491,18.328-1.427,18.531  c0.162,0.512,0.331,0.969,0.924,0.948c0.447-0.015,5.573-1.017,7.715-1.406c0.401-0.069,0.653-0.42,0.602-0.776  c-0.059-0.408-2.016-11.175-2.068-11.373C32.542,71.763,31.832,71.029,31.437,70.488z"/>
</svg>